PathFileType	4	(X/Y/Z)	C:/Users/opensim2020/Desktop/walking_exp_matlab/subject03_walking04_static.trc																																																																																																																																																							
DataRate	CameraRate	NumFrames	NumMarkers	Units	OrigDataRate	OrigDataStartFrame	OrigNumFrames																																																																																																																																																			
100	100	4	51	mm	100	183	196																																																																																																																																																			
Frame#	Time	LFHD			RFHD			LBHD			RBHD			C7			T10			CLAV			STRN			RBAK			LSHO			LUPA			LELB			LFRM			LWRA			LWRB			LFIN			RSHO			RUPA			RELB			RFRM			RWRA			RWRB			RFIN			LASI			RASI			LPSI			RPSI			LTHI			LKNE			LTIB			LANK			LHEE			LTOE			RTHI			RKNE			RTIB			RANK			RHEE			RTOE			*39			*40			*41			*42			*43			*44			*45			*46			*47			*48			*49			*50		
		X1	Y1	Z1	X2	Y2	Z2	X3	Y3	Z3	X4	Y4	Z4	X5	Y5	Z5	X6	Y6	Z6	X7	Y7	Z7	X8	Y8	Z8	X9	Y9	Z9	X10	Y10	Z10	X11	Y11	Z11	X12	Y12	Z12	X13	Y13	Z13	X14	Y14	Z14	X15	Y15	Z15	X16	Y16	Z16	X17	Y17	Z17	X18	Y18	Z18	X19	Y19	Z19	X20	Y20	Z20	X21	Y21	Z21	X22	Y22	Z22	X23	Y23	Z23	X24	Y24	Z24	X25	Y25	Z25	X26	Y26	Z26	X27	Y27	Z27	X28	Y28	Z28	X29	Y29	Z29	X30	Y30	Z30	X31	Y31	Z31	X32	Y32	Z32	X33	Y33	Z33	X34	Y34	Z34	X35	Y35	Z35	X36	Y36	Z36	X37	Y37	Z37	X38	Y38	Z38	X39	Y39	Z39	X40	Y40	Z40	X41	Y41	Z41	X42	Y42	Z42	X43	Y43	Z43	X44	Y44	Z44	X45	Y45	Z45	X46	Y46	Z46	X47	Y47	Z47	X48	Y48	Z48	X49	Y49	Z49	X50	Y50	Z50	X51	Y51	Z51
																																																																																																																																																										
1	0	-358.44937	1632.53369	-664.62122	-393.15155	1642.62097	-535.78168	-485.25479	1591.71509	-690.76733	-514.80322	1601.96863	-563.37817	-529.25482	1426.50476	-624.23285	-543.69812	1113.94263	-616.3833	-400.39063	1362.7561	-609.22766	-344.9498	1199.26233	-607.93591	-578.8457	1247.32983	-533.5412	-451.3483	1398.93359	-768.30939	-464.52222	1210.16077	-854.45947	-459.73285	1090.94385	-884.29364	-428.5849	966.10956	-907.22992	-395.43793	848.16937	-899.7655	-431.94336	856.08374	-941.4574	-408.41345	774.39081	-946.7066	-480.68295	1390.52795	-460.05655	-486.51755	1179.99084	-364.46527	-470.35922	1072.67249	-330.79935	-449.53107	939.27472	-302.88654	-407.67999	842.75201	-313.95941	-449.45807	841.47791	-278.33896	-422.1492	771.09888	-272.82321	-385.64801	947.02197	-719.61475	-399.46368	947.69037	-485.57535	-549.60266	978.80347	-681.22723	-555.65228	986.56293	-532.01624	-453.49341	647.37714	-772.28644	-461.00635	469.80014	-735.58447	-517.53534	285.41232	-754.56738	-539.24805	73.78228	-729.79181	-580.76202	36.79121	-697.07172	-387.0112	34.47551	-709.14575	-471.66708	654.04572	-440.41556	-466.1842	474.1716	-474.1748	-519.11926	292.88428	-462.27325	-547.03247	76.14259	-501.21722	-587.33508	41.79206	-552.64899	-404.90512	36.44896	-500.46445	-449.21243	1698.76331	-639.89911	NaN	NaN	NaN	NaN	NaN	NaN	NaN	NaN	NaN	NaN	NaN	NaN	NaN	NaN	NaN	NaN	NaN	NaN	NaN	NaN	NaN	NaN	NaN	NaN	NaN	NaN	NaN	NaN	NaN	NaN	NaN	NaN	NaN
2	0.01	-358.39783	1632.52893	-664.56506	-393.07513	1642.60095	-535.74023	-485.1937	1591.7373	-690.70459	-514.75562	1601.96082	-563.34674	-529.19128	1426.55029	-624.20447	-543.78687	1114.00647	-616.30035	-400.30762	1362.79163	-609.2193	-344.98932	1199.27087	-607.96552	-578.74341	1247.4668	-533.36639	-451.31293	1398.99585	-768.36127	-464.6279	1210.24634	-854.50885	-459.9184	1091.03528	-884.45496	-428.82632	966.1828	-907.43896	-395.77658	848.21106	-900.04565	-432.22754	856.20734	-941.74963	-408.74484	774.47186	-946.95178	-480.50391	1390.64001	-460.03842	-486.57422	1180.2146	-364.22928	-470.48798	1072.94275	-330.38232	-449.70276	939.74261	-302.19034	-407.73294	842.97992	-313.27673	-449.59189	841.84607	-277.58719	-422.30057	771.49506	-271.99341	-385.85721	947.05383	-719.59668	-399.6254	947.72308	-485.58627	-549.82129	978.82751	-681.19458	-555.80017	986.59796	-531.95837	-453.61334	647.37854	-772.25128	-461.02484	469.82248	-735.50629	-517.54016	285.39581	-754.54547	-539.2641	73.79369	-729.82489	-580.75293	36.79704	-697.06012	-387.02277	34.47165	-709.11462	-471.77634	654.00702	-440.36603	-466.21692	474.15756	-474.13766	-519.14355	292.8606	-462.23505	-546.96588	76.14111	-501.13058	-587.43457	41.87307	-552.86737	-404.92316	36.4382	-500.4462	-449.13083	1698.78735	-639.88885	NaN	NaN	NaN	NaN	NaN	NaN	NaN	NaN	NaN	NaN	NaN	NaN	NaN	NaN	NaN	NaN	NaN	NaN	NaN	NaN	NaN	NaN	NaN	NaN	NaN	NaN	NaN	NaN	NaN	NaN	NaN	NaN	NaN
3	0.02	-358.30917	1632.56287	-664.52197	-393.04205	1642.62244	-535.69275	-485.14291	1591.7876	-690.65692	-514.71167	1602.01831	-563.33234	-529.12286	1426.58838	-624.16309	-543.88501	1114.06079	-616.22046	-400.24738	1362.79138	-609.24139	-345.00452	1199.21558	-607.99084	-578.6792	1247.54822	-533.25494	-451.24634	1399.02649	-768.40924	-464.73117	1210.31567	-854.60571	-460.08691	1091.10254	-884.54535	-429.0094	966.25287	-907.5766	-396.07233	848.24133	-900.21869	-432.48959	856.30255	-941.91864	-409.0816	774.55383	-947.30823	-480.34613	1390.74109	-460.04141	-486.65018	1180.41821	-363.95615	-470.6073	1073.18909	-329.95929	-449.8049	940.06934	-301.67596	-407.99417	843.36316	-312.61517	-449.63205	842.15942	-276.9809	-422.3244	771.77594	-271.42947	-386.05801	947.0542	-719.52673	-399.81122	947.75842	-485.60303	-549.91528	978.80847	-681.06665	-555.96704	986.64465	-531.93347	-453.74359	647.42633	-772.25049	-461.04498	469.84106	-735.56207	-517.54254	285.40366	-754.56952	-539.25824	73.80393	-729.83875	-580.75848	36.80039	-697.05267	-387.00558	34.47082	-709.11853	-471.85016	654.00342	-440.3262	-466.26437	474.16403	-474.10367	-519.14258	292.81934	-462.2196	-546.98425	76.14956	-501.12497	-587.44592	41.89029	-552.87518	-404.90976	36.45744	-500.46149	-449.04465	1698.8219	-639.78857	NaN	NaN	NaN	NaN	NaN	NaN	NaN	NaN	NaN	NaN	NaN	NaN	NaN	NaN	NaN	NaN	NaN	NaN	NaN	NaN	NaN	NaN	NaN	NaN	NaN	NaN	NaN	NaN	NaN	NaN	NaN	NaN	NaN
4	0.03	-358.2756	1632.59741	-664.49158	-392.98758	1642.61389	-535.68311	-485.09653	1591.81836	-690.62762	-514.66284	1602.03699	-563.27612	-529.02716	1426.64551	-624.18103	-543.98138	1114.13257	-616.18219	-400.15921	1362.82312	-609.25281	-345.01712	1199.18909	-608.02313	-578.63031	1247.63196	-533.12213	-451.06665	1399.04504	-768.32922	-464.8696	1210.39282	-854.63647	-460.24387	1091.17932	-884.68018	-429.19861	966.3197	-907.66339	-396.34744	848.26129	-900.33563	-432.78278	856.36597	-942.04865	-409.38416	774.62354	-947.4989	-480.12827	1390.82654	-459.99454	-486.71915	1180.6239	-363.72098	-470.72424	1073.44006	-329.58331	-449.88116	940.32947	-301.20667	-408.02151	843.64667	-312.08398	-449.62842	842.453	-276.44186	-422.31152	772.00293	-270.81189	-386.2373	947.08075	-719.50226	-399.96268	947.78381	-485.56198	-550.16699	978.88446	-681.13599	-556.08972	986.66168	-531.92041	-453.87103	647.45697	-772.27777	-461.0242	469.88254	-735.5636	-517.52502	285.42001	-754.57574	-539.24451	73.79798	-729.84106	-580.75708	36.81596	-697.09436	-387.01587	34.49829	-709.14282	-471.93484	654.02399	-440.27362	-466.31387	474.18817	-474.06805	-519.15112	292.82379	-462.2059	-546.95032	76.14406	-501.13641	-587.45117	41.86911	-552.86591	-404.91202	36.47773	-500.45605	-448.9819	1698.82068	-639.6629	NaN	NaN	NaN	NaN	NaN	NaN	NaN	NaN	NaN	NaN	NaN	NaN	NaN	NaN	NaN	NaN	NaN	NaN	NaN	NaN	NaN	NaN	NaN	NaN	NaN	NaN	NaN	NaN	NaN	NaN	NaN	NaN	NaN
